<svg t="1616467164913" class="icon" viewBox="0 0 1024 1024" version="1.1" xmlns="http://www.w3.org/2000/svg" p-id="21283" width="120" height="120"><path d="M615.88412 1.887744a101.247837 101.247837 0 1 0 81.773821 99.330264A91.617361 91.617361 0 0 0 615.88412 1.887744zM242.213125 115.408046A101.247837 101.247837 0 1 0 323.986946 214.951374a91.617361 91.617361 0 0 0-81.773821-99.372877z m432.093042 113.562915A114.756071 114.756071 0 0 0 604.16562 257.5641l-151.78653 131.289809c-41.206506 35.624239-3.409018 98.307559 35.02766 67.413333l99.245039-79.813636s65.453147 170.450904 40.865605 250.136702a24.843219 24.843219 0 0 0-1.448833 7.073712l-102.270542 329.992951a38.649743 38.649743 0 1 0 70.055321 28.380075l126.985924-365.446738s23.351774 170.450904 116.758869 170.450904H966.373791a43.422368 43.422368 0 0 0 0-85.225452h-105.253433c-49.814277 0-46.873999-90.97817-46.873999-141.900378a971.570154 971.570154 0 0 0-46.873998-227.083217l140.110643 113.520302c42.35705 34.303244 79.046607-26.41989 37.967939-63.919089L791.065036 257.5641a82.498238 82.498238 0 0 0-70.055321-28.380075h-46.873999zM183.83369 342.491263a57.228891 57.228891 0 0 0-46.873999 28.380076L37.714652 491.550579a70.18316 70.18316 0 0 0-17.556443 49.643826 30.723775 30.723775 0 0 0 55.396544 17.769507l84.671487-102.909734c46.873999 0 64.217378 141.900378 46.873998 198.703142L137.044917 881.840537c-19.431403 62.896384 53.436358 82.242561 70.055321 28.380075l70.097935-227.083217a90.211141 90.211141 0 0 0 70.055321 56.760151h140.110644c46.873999 0 46.873999-85.225452 0-85.225452H370.647881c-23.351774 0-23.351774-56.802764-23.351774-85.225452 0-113.562915-46.873999-227.083217-93.407095-227.083217H183.83369z" p-id="21284"></path></svg>