<svg t="1619067543526" class="icon" viewBox="0 0 1137 1024" version="1.1" xmlns="http://www.w3.org/2000/svg" p-id="3384" width="200" height="200"><path d="M1035.374299 796.441153L859.586928 625.775763 735.001373 754.344304 367.500686 381.154638 73.386738 796.441153z m-978.486502-75.661729L360.106713 292.408955l374.327662 379.447644 124.016557-127.999543 222.435205 217.883221V56.889797h-1023.99634zM0 853.32995V0h1137.773933v853.32995zM654.219662 312.888882A170.66639 170.66639 0 1 1 824.887052 483.554272a170.66639 170.66639 0 0 1-170.66639-170.66639z m56.889796 0A113.777593 113.777593 0 1 0 824.885052 199.109288 113.777593 113.777593 0 0 0 711.107458 312.888882zM284.442983 967.107543a56.888797 56.888797 0 1 0 56.889797-56.888796 56.888797 56.888797 0 0 0-56.889797 56.889796zM511.99817 967.107543a56.888797 56.888797 0 1 0 56.888797-56.888796A56.888797 56.888797 0 0 0 511.99817 967.108543zM739.553357 967.107543a56.888797 56.888797 0 1 0 56.887796-56.888796 56.888797 56.888797 0 0 0-56.887796 56.889796z" p-id="3385"></path></svg>