<svg t="1618901743488" class="icon" viewBox="0 0 1117 1024" version="1.1" xmlns="http://www.w3.org/2000/svg" p-id="4261" width="200" height="200"><path d="M1005.381818 866.117818v116.270546c0 0.744727-0.418909 1.396364-0.465454 2.187636a36.305455 36.305455 0 0 1-10.426182 28.439273 37.376 37.376 0 0 1-52.689455 0l-157.975272-156.997818c-0.837818-0.837818-1.117091-1.908364-1.861819-2.792728v18.106182h-260.654545c-7.493818 0-14.708364-1.070545-21.876364-2.141091A46.08 46.08 0 0 1 465.454545 884.363636a46.545455 46.545455 0 0 1 0-93.090909v-20.340363c13.637818 15.825455 33.233455 26.391273 55.854546 26.391272h260.654545v9.169455c0.744727-0.884364 1.024-1.954909 1.861819-2.792727a37.376 37.376 0 0 1 52.689454 0L930.909091 897.536v-63.208727c0-20.433455 16.663273-37.003636 37.236364-37.003637 20.573091 0 37.236364 16.570182 37.236363 37.003637V787.083636c22.155636-12.846545 37.236364-36.445091 37.236364-63.767272V427.287273c0-40.866909-33.326545-74.007273-74.472727-74.007273H930.909091V558.545455a186.181818 186.181818 0 0 1-186.181818 186.181818H418.909091v-22.807273c-0.930909 1.117091-1.303273 2.466909-2.327273 3.537455l-197.492363 197.445818a46.498909 46.498909 0 0 1-65.815273 0 45.986909 45.986909 0 0 1-13.079273-35.793455C140.148364 886.178909 139.636364 885.341091 139.636364 884.363636v-146.199272C59.485091 717.358545 0 645.213091 0 558.545455V186.181818a186.181818 186.181818 0 0 1 186.181818-186.181818h558.545455a186.181818 186.181818 0 0 1 186.181818 186.181818v93.090909h37.236364C1050.391273 279.272727 1117.090909 345.553455 1117.090909 427.287273v296.029091c0 68.887273-47.569455 126.277818-111.709091 142.801454zM837.818182 186.181818a93.090909 93.090909 0 0 0-93.090909-93.090909H186.181818a93.090909 93.090909 0 0 0-93.090909 93.090909v372.363637c0 34.350545 18.850909 64.046545 46.545455 80.197818V698.181818a46.545455 46.545455 0 0 1 93.090909 0v79.453091l118.039272-117.992727a46.498909 46.498909 0 0 1 65.815273 0c1.024 1.024 1.396364 2.373818 2.327273 3.490909V651.636364h325.818182a93.090909 93.090909 0 0 0 93.090909-93.090909V186.181818z" p-id="4262"></path></svg>