<svg t="1616467428290" class="icon" viewBox="0 0 1024 1024" version="1.1" xmlns="http://www.w3.org/2000/svg" p-id="23413" width="120" height="120"><path d="M959.787 148.907l-44.331-0.726c-1.024 0-100.437-2.048-203.05-41.728-105.302-40.789-173.142-87.552-173.782-88.021L511.872 0l-26.624 18.475c-0.64 0.426-68.48 47.232-173.781 87.978-102.528 39.766-201.984 41.728-202.923 41.728L64 148.907V579.37C64 795.477 355.328 1024 511.957 1024 668.715 1024 960 795.477 960 579.37l-0.213-430.463zM321.877 772.48V355.413h-39.765v-37.93h159.061v189.61l200.192-189.61h157.696L321.877 772.48z" p-id="23414"></path></svg>