<svg t="1619327105548" class="icon" viewBox="0 0 1024 1024" version="1.1" xmlns="http://www.w3.org/2000/svg" p-id="7128" width="200" height="200"><path d="M799.322353 863.774118l-56.018824 56.018824c-4.818824 4.818824-4.818824 12.047059 0 16.865882 2.409412 2.409412 5.421176 3.614118 8.432941 3.614118 3.011765 0 6.023529-1.204706 8.432941-3.614118l56.018824-56.018824c4.818824-4.818824 4.818824-12.047059 0-16.865882C811.369412 858.955294 804.141176 858.955294 799.322353 863.774118z" p-id="7129"></path><path d="M793.901176 793.901176 662.588235 924.611765c-4.818824 4.818824-4.818824 12.047059 0 16.865882 2.409412 2.409412 5.421176 3.614118 8.432941 3.614118 3.011765 0 6.023529-1.204706 8.432941-3.614118l131.312941-130.710588c4.818824-4.818824 4.818824-12.047059 0-16.865882C805.948235 789.082353 798.72 789.082353 793.901176 793.901176z" p-id="7130"></path><path d="M999.905882 404.781176c-10.24 0-18.070588 7.830588-18.070588 18.070588 0 56.018824-45.778824 101.797647-102.4 101.797647s-102.4-45.778824-102.4-101.797647c0-10.24-7.830588-18.070588-18.070588-18.070588s-18.070588 7.830588-18.070588 18.070588c0 56.018824-45.778824 101.797647-102.4 101.797647s-102.4-45.778824-102.4-101.797647c0-10.24-7.830588-18.070588-18.070588-18.070588s-18.070588 7.830588-18.070588 18.070588c0 56.018824-45.778824 101.797647-102.4 101.797647s-102.4-45.778824-102.4-101.797647c0-10.24-7.830588-18.070588-18.070588-18.070588s-18.070588 7.830588-18.070588 18.070588c0 56.018824-45.778824 101.797647-102.4 101.797647S54.211765 478.870588 54.211765 422.851765c0-10.24-7.830588-18.070588-18.070588-18.070588s-18.070588 7.830588-18.070588 18.070588c0 75.896471 62.042353 137.938824 138.541176 137.938824 51.802353 0 96.376471-28.310588 120.470588-69.872941 24.094118 41.562353 68.668235 69.872941 120.470588 69.872941s96.376471-28.310588 120.470588-69.872941c24.094118 41.562353 68.668235 69.872941 120.470588 69.872941s96.376471-28.310588 120.470588-69.872941c24.094118 41.562353 68.668235 69.872941 120.470588 69.872941 76.498824 0 138.541176-62.042353 138.541176-137.938824C1017.976471 413.214118 1010.145882 404.781176 999.905882 404.781176z" p-id="7131"></path><path d="M46.381176 363.821176c9.637647 3.011765 19.877647-1.807059 22.889412-11.444706L164.442353 66.258824c2.409412-7.228235 9.637647-12.047059 16.865882-12.047059l672.225882 0c7.830588 0 14.456471 4.818824 16.865882 12.047059l95.774118 286.117647c2.409412 7.830588 9.637647 12.047059 16.865882 12.047059 1.807059 0 3.614118-0.602353 6.023529-1.204706 9.637647-3.011765 14.456471-13.251765 11.444706-22.889412L905.336471 54.814118c-7.228235-22.287059-28.310588-36.743529-51.2-36.743529L181.910588 18.070588c-23.491765 0-43.971765 15.058824-51.2 36.743529L34.936471 340.931765C31.924706 349.967059 36.743529 360.207059 46.381176 363.821176z" p-id="7132"></path><path d="M879.435294 587.294118c-10.24 0-18.070588 7.830588-18.070588 18.070588L861.364706 963.764706c0 9.637647-7.830588 18.070588-18.070588 18.070588L195.162353 981.835294c-10.24 0-18.070588-7.830588-18.070588-18.070588l0-359.002353c0-10.24-7.830588-18.070588-18.070588-18.070588s-18.070588 7.830588-18.070588 18.070588L140.950588 963.764706c0 29.515294 24.094118 54.211765 54.211765 54.211765L843.294118 1017.976471c30.117647 0 54.211765-24.094118 54.211765-54.211765l0-359.002353C897.505882 595.124706 889.675294 587.294118 879.435294 587.294118z" p-id="7133"></path><path d="M120.470588 309.007059c-10.24 0-18.070588 7.830588-18.070588 18.070588s7.830588 18.070588 18.070588 18.070588l792.094118 0c10.24 0 18.070588-7.830588 18.070588-18.070588s-7.830588-18.070588-18.070588-18.070588L120.470588 309.007059z" p-id="7134"></path></svg>