<svg t="1616467913858" class="icon" viewBox="0 0 1024 1024" version="1.1" xmlns="http://www.w3.org/2000/svg" p-id="26384" width="120" height="120"><path d="M488.727273 553.890909c65.163636-41.890909 111.709091-111.709091 111.709091-190.836364 0-125.672727-102.4-223.418182-228.072728-223.418181s-232.727273 97.745455-232.727272 223.418181c0 83.781818 46.545455 153.6 111.709091 190.836364-121.018182 46.545455-204.8 158.254545-204.8 293.236364 0 23.272727 18.618182 37.236364 37.236363 37.236363s37.236364-18.618182 37.236364-37.236363c0-134.981818 111.709091-242.036364 246.690909-242.036364s246.690909 107.054545 246.690909 242.036364c0 23.272727 18.618182 37.236364 37.236364 37.236363s37.236364-18.618182 37.236363-37.236363c4.654545-130.327273-83.781818-246.690909-200.145454-293.236364z m-121.018182-41.890909c-83.781818 0-148.945455-65.163636-148.945455-148.945455s69.818182-148.945455 148.945455-148.945454c83.781818 0 148.945455 65.163636 148.945454 148.945454s-65.163636 148.945455-148.945454 148.945455zM828.509091 614.4c46.545455-37.236364 74.472727-93.090909 74.472727-148.945455 0-102.4-83.781818-186.181818-186.181818-186.181818-18.618182 0-37.236364 4.654545-60.509091 13.963637h-4.654545s-4.654545 4.654545-9.309091 4.654545c-13.963636 9.309091-23.272727 23.272727-23.272728 37.236364 0 23.272727 18.618182 41.890909 41.89091 41.890909 4.654545 0 9.309091-4.654545 13.963636-4.654546 9.309091-4.654545 23.272727-4.654545 32.581818-4.654545 60.509091 0 107.054545 46.545455 107.054546 102.4 0 60.509091-46.545455 107.054545-102.4 107.054545-27.927273 0-46.545455 18.618182-46.545455 46.545455 0 23.272727 23.272727 46.545455 46.545455 46.545454h4.654545c97.745455 0 176.872727 79.127273 176.872727 176.872728 0 23.272727 18.618182 41.890909 41.890909 41.890909s41.890909-18.618182 41.890909-41.890909c0-102.4-55.854545-195.490909-148.945454-232.727273z" p-id="26385"></path></svg>